PathFileType	4	(X/Y/Z)	C:\Users\WrightLab\Desktop\Jo\P2_Trial31.trc
DataRate	CameraRate	NumFrames	NumMarkers	Units	OrigDataRate	OrigDataStartFrame	OrigNumFrames
100.00	100.00	       27	19	mm	100.00	610	       812
Frame#	Time	Headset_Front			Headset_Back			Headset_Left			Headset_Right			Left_Shoulder			Right_Shoulder			Sternum			C7			Left Elbow			Right Elbow			Left Wrist			Right Wrist			Left ASIS			Right ASIS			S2			Left Knee			Right Knee			Left Ankle			Right Ankle			
		X1	Y1	Z1	X2	Y2	Z2	X3	Y3	Z3	X4	Y4	Z4	X5	Y5	Z5	X6	Y6	Z6	X7	Y7	Z7	X8	Y8	Z8	X9	Y9	Z9	X10	Y10	Z10	X11	Y11	Z11	X12	Y12	Z12	X13	Y13	Z13	X14	Y14	Z14	X15	Y15	Z15	X16	Y16	Z16	X17	Y17	Z17	X18	Y18	Z18	X19	Y19	Z19	

610	6.090													-221.29317	1512.04004	2346.72925	-332.12903	1084.66492	2310.45459							-198.41106	1175.43677	2487.51831				-206.68002	943.96484	2546.83911													-273.55374	521.33783	2486.56885	-267.38483	581.52295	2115.43042	-353.22049	234.78075	2674.40332	-359.34793	166.14905	2177.76074	
611	6.100													-226.34201	1512.58752	2352.58569	-335.97198	1083.67261	2313.57202							-205.06097	1175.84106	2493.32495				-213.36743	943.48279	2551.75439													-276.62561	519.67236	2487.69824	-263.27921	581.88861	2120.55103	-368.54260	241.62122	2681.52246	-355.89957	166.31644	2175.21387	
612	6.110													-231.63440	1513.20203	2358.51563	-339.53345	1082.79883	2317.35938							-212.67967	1175.82959	2498.65771				-219.60175	943.89935	2557.04761													-279.77988	518.38666	2489.38379	-259.21155	583.01581	2121.41235	-383.40326	246.01192	2685.58887	-350.29395	164.98625	2178.10059	
613	6.120													-236.67914	1513.41919	2364.38135	-342.60529	1082.44434	2319.80859							-219.58450	1176.11389	2504.51904				-226.44615	943.66138	2562.15381													-283.19778	518.40350	2492.72729	-256.02951	582.88910	2126.31714	-397.04819	250.70845	2687.33521	-346.68890	166.59270	2174.29834	
614	6.130													-241.65894	1514.25781	2370.95288	-346.28073	1082.09229	2323.39063							-226.55602	1176.84546	2510.45508				-233.27380	943.61346	2567.06348													-286.51028	520.24500	2499.08325	-254.07700	584.76459	2133.67627	-408.68771	253.73120	2687.02246	-341.58640	167.19356	2172.68555	
615	6.140													-246.53093	1514.60693	2376.26953	-349.62738	1082.58313	2327.29443							-233.80179	1176.23816	2515.30957				-239.71620	943.55933	2572.65283													-288.60013	521.41351	2505.19409	-252.21095	586.84320	2131.10449	-417.58673	255.81169	2684.55005	-337.01166	167.03931	2172.79834	
616	6.150													-251.40163	1514.88513	2381.58765	-352.39520	1083.23987	2330.28345							-240.35185	1176.69226	2520.39795				-247.49605	944.19470	2578.31323													-290.89810	522.63715	2511.83154	-250.66483	585.97162	2139.41357	-423.52844	255.58757	2681.04541	-331.44562	165.03505	2175.28955	
617	6.160																-355.48462	1083.99695	2333.49146							-247.39395	1177.58740	2526.64111				-254.42390	943.65161	2582.16919													-292.66922	523.73340	2518.23315	-249.67407	587.32892	2139.58594	-426.50208	252.76343	2677.44702	-327.34845	165.88492	2173.19238	
618	6.170																-358.45605	1084.63110	2336.55078							-254.34163	1177.26697	2531.19165				-261.78455	944.09406	2587.03833													-294.24387	524.48822	2524.33130	-248.95976	586.99292	2143.22217	-426.30365	246.61192	2672.25977	-322.64401	165.03998	2173.03711	
619	6.180																-361.95016	1086.66943	2340.77710							-260.79083	1177.58569	2536.89307				-269.56253	944.65466	2592.64893													-295.66458	523.90424	2530.19238	-249.11748	587.90741	2146.13477	-425.29901	241.44501	2668.87866				
620	6.190																-364.92636	1087.70850	2344.45044							-267.26379	1177.86194	2542.03345				-276.96536	944.72980	2597.57202													-296.65451	523.05450	2536.04492	-249.29105	588.21942	2146.34717	-423.52942	235.46138	2664.93726				
621	6.200																-367.99597	1088.87537	2349.00708							-274.31100	1178.07202	2547.28809				-285.06686	944.75500	2602.53809													-297.99454	521.91864	2541.45215	-249.81038	587.84106	2149.89209	-421.23816	228.26782	2659.66602				
622	6.210																-373.32019	1096.50220	2361.63965							-280.61932	1178.15613	2553.19702				-293.22482	944.52264	2607.18726													-298.94519	520.72681	2546.43164	-250.56989	588.24390	2153.08325	-419.11722	221.28423	2655.81641				
623	6.220																-372.43640	1097.29089	2362.52686													-301.37338	944.46106	2611.76831													-299.76755	518.92700	2551.35132	-251.49130	588.69354	2156.48804	-417.41425	214.27019	2651.95044				
624	6.230																															-309.81989	944.56903	2616.39453													-301.85745	519.33466	2556.89551	-252.37440	588.96552	2157.64355	-414.91589	205.82251	2646.66382				
625	6.240																															-318.38998	944.48199	2620.74194													-303.63010	518.78754	2560.81201	-253.07246	589.02283	2158.56543	-413.28830	199.08635	2643.45093				
626	6.250																															-327.10559	944.18549	2624.76416													-306.70703	519.03162	2564.59790	-254.01448	588.39087	2162.69434	-410.65771	191.88130	2638.79761				
627	6.260																																														-310.21042	518.84393	2567.35815	-254.74921	588.47064	2163.66357	-408.10068	185.60066	2633.76709				
628	6.270																																														-315.42554	520.16046	2570.49072	-255.74136	589.86627	2166.48413	-405.50253	181.13625	2629.37427				
629	6.280																																														-321.02527	521.00348	2573.49438	-256.56061	590.99988	2166.87402	-402.20389	176.36938	2624.26660				
630	6.290																																														-326.35406	521.89563	2575.64844	-257.01114	591.37628	2167.45044	-398.47272	173.04076	2619.57227				
631	6.300																																														-332.03592	522.32489	2578.81128	-257.50632	591.55261	2168.09692	-394.90094	171.54723	2614.15918				
632	6.310																																														-335.65714	521.96979	2579.53491	-257.93103	591.00604	2171.54150	-390.77142	169.63176	2608.45508				
633	6.320																																														-339.09317	521.60638	2581.06226	-258.61191	591.33807	2174.64624	-386.64227	168.20445	2603.78101				
634	6.330																																														-342.24310	521.99097	2582.90698	-258.87860	590.97870	2177.31982	-381.44916	167.66544	2599.03687				
635	6.340																																														-343.76715	521.36060	2582.57593	-259.17990	591.27753	2179.27466	-376.97739	166.85503	2594.49023				
636	6.350																																														-346.41049	522.43866	2584.79102	-258.97809	591.90576	2178.96973	-372.77731	165.47386	2590.00879				
